<svg xmlns="http://www.w3.org/2000/svg" viewBox="0 0 64 64">
  <defs>
    <linearGradient id="r" x1="0" x2="1" y1="0" y2="1">
      <stop offset="0%" stop-color="#ff6b6b"/>
      <stop offset="100%" stop-color="#b21f3a"/>
    </linearGradient>
    <linearGradient id="g" x1="0" x2="1">
      <stop offset="0%" stop-color="#fff8d4"/>
      <stop offset="100%" stop-color="#d1a62a"/>
    </linearGradient>
  </defs>
  <rect width="64" height="64" rx="12" fill="#fff"/>
  <g transform="translate(6 4)">
    <path d="M26 4c4 0 7 1 9 3 3-5 7-7 13-7-2 6-6 9-12 11 4 1 8 2 12 5 11 7 17 21 14 35-5 21-22 27-36 27S3 72-2 51c-3-14 3-28 14-35 5-3 10-4 15-5 2-3 4-5 6-6 2-1 5-1 9-1z" fill="url(#r)" transform="scale(.6 .6) translate(10 8)"/>
    <rect x="12" y="34" width="28" height="12" rx="6" fill="url(#g)"/>
  </g>
</svg>